<?xml version="1.0" standalone="no"?>
<!DOCTYPE svg PUBLIC "-//W3C//DTD SVG 20010904//EN"
 "http://www.w3.org/TR/2001/REC-SVG-20010904/DTD/svg10.dtd">
<svg version="1.0" xmlns="http://www.w3.org/2000/svg"
 width="460.000000pt" height="460.000000pt" viewBox="0 0 460.000000 460.000000"
 preserveAspectRatio="xMidYMid meet">
<metadata>
Created by potrace 1.11, written by Peter Selinger 2001-2013
</metadata>
<g transform="translate(0.000000,460.000000) scale(0.100000,-0.100000)"
fill="#000000" stroke="none">
<path d="M0 4185 c0 -228 2 -415 5 -415 3 0 18 8 32 17 22 14 45 17 127 14 94
-3 101 -1 118 21 l19 23 -7 -27 c-5 -23 -3 -28 13 -28 16 0 52 -48 41 -54 -30
-18 -62 -25 -77 -17 -39 21 -91 -11 -91 -56 0 -13 -3 -23 -6 -23 -13 0 -36 32
-31 44 10 24 -8 33 -75 38 l-68 6 1 -230 c0 -260 -10 -233 91 -258 46 -12 65
-30 33 -30 -8 0 -15 -7 -15 -15 0 -18 -3 -18 -63 0 l-47 14 0 -449 c1 -419 2
-449 18 -444 15 5 15 5 0 -6 -10 -6 -18 -20 -18 -30 0 -24 3 -25 38 -3 26 16
26 16 -5 -18 -31 -34 -31 -36 -33 -143 -1 -98 1 -108 14 -96 13 10 16 10 16
-4 0 -10 5 -14 11 -11 6 4 8 13 5 21 -3 7 -1 16 4 19 6 4 10 15 10 25 0 18 45
92 82 133 9 11 25 36 34 56 18 37 64 110 109 170 14 19 25 40 25 48 0 7 4 13
8 13 14 0 52 36 52 49 0 6 3 11 8 11 14 0 82 72 76 81 -3 5 3 12 13 16 29 11
73 46 73 58 0 6 13 18 29 28 17 10 65 50 108 91 43 40 85 76 93 80 9 3 5 4 -8
2 -17 -3 -23 1 -28 22 -3 15 -13 46 -21 70 -9 23 -13 45 -10 49 4 3 27 0 52
-7 42 -12 45 -15 45 -46 0 -23 -6 -38 -20 -46 -27 -17 -25 -28 4 -28 35 0 56
10 56 26 0 8 9 14 20 14 12 0 33 12 47 26 14 14 40 35 57 45 17 10 25 19 18
19 -7 0 -10 5 -7 10 4 6 15 8 25 5 10 -3 33 3 52 15 18 11 43 20 56 20 12 0
22 4 22 9 0 5 16 8 35 7 22 -1 35 3 35 11 0 7 11 13 25 13 14 0 25 5 25 10 0
6 5 10 10 10 6 0 10 -6 10 -13 0 -16 41 -37 71 -37 42 0 59 -18 58 -63 -1 -23
2 -53 5 -67 3 -13 1 -27 -6 -31 -9 -6 -9 -11 0 -21 9 -11 9 -17 0 -26 -8 -8
-8 -15 1 -25 9 -12 8 -16 -4 -21 -8 -3 -15 -12 -15 -21 0 -14 -20 -19 -82 -19
-9 0 -15 -3 -12 -8 3 -4 -5 -8 -18 -8 -17 0 -19 3 -9 9 19 12 -4 24 -33 17
-15 -4 -28 0 -36 9 -14 17 -34 9 -26 -10 2 -7 -2 -16 -10 -19 -8 -3 -14 -19
-14 -41 0 -38 -2 -40 -30 -25 -15 8 -24 5 -44 -17 -24 -26 -25 -28 -7 -35 10
-3 43 -7 72 -7 30 0 74 -7 98 -15 24 -9 53 -16 65 -16 26 0 285 -129 329 -164
74 -60 137 -121 137 -133 0 -7 18 -32 40 -55 22 -24 70 -87 106 -140 63 -93
85 -115 105 -102 18 11 8 42 -26 77 -19 20 -35 43 -35 52 0 8 -7 15 -15 15
-17 0 -22 55 -6 65 17 10 42 70 31 73 -13 5 -13 92 1 92 5 0 8 4 4 9 -3 5 4
12 15 16 11 3 20 11 20 16 0 5 7 9 15 9 13 0 15 7 10 33 -6 30 -2 37 30 65 19
18 47 33 60 33 76 4 75 3 60 42 -4 10 -3 17 4 17 6 0 11 7 11 15 0 9 9 15 25
15 14 0 25 4 25 8 0 5 7 17 16 28 15 18 15 18 9 -8 -7 -35 2 -36 15 -2 8 19
15 24 27 19 10 -3 14 -3 10 1 -10 10 24 33 51 34 12 0 22 -4 22 -10 0 -10 -13
-14 -37 -11 -6 1 -15 -4 -19 -10 -5 -9 -2 -10 10 -6 10 4 19 1 22 -7 4 -10 13
-11 46 -2 36 9 42 8 57 -10 9 -11 24 -23 34 -27 10 -4 15 -11 12 -17 -3 -5 1
-10 10 -10 8 0 20 -11 24 -24 5 -13 18 -27 28 -31 17 -7 17 -8 -2 -15 -17 -7
-14 -9 13 -9 17 -1 32 -5 32 -11 0 -5 11 -12 25 -16 14 -3 25 -12 25 -19 0
-15 63 -85 76 -85 8 0 29 -15 92 -70 13 -11 30 -20 37 -20 7 0 27 -11 43 -25
17 -14 35 -25 40 -25 6 0 14 -17 18 -37 5 -27 9 -33 13 -20 6 17 8 17 30 -2
13 -12 28 -21 33 -21 4 0 8 -8 8 -18 0 -12 14 -25 40 -37 22 -10 41 -24 41
-32 1 -7 2 -19 3 -25 1 -7 12 -13 26 -13 14 0 32 -4 40 -10 8 -5 24 -8 34 -6
13 2 17 -2 13 -12 -5 -14 25 -47 44 -47 6 0 9 -7 5 -15 -4 -12 3 -15 30 -15
21 0 33 -4 29 -10 -3 -5 3 -10 15 -10 12 0 19 -4 16 -9 -3 -5 8 -14 25 -20 24
-8 29 -15 24 -30 -5 -16 -2 -18 15 -14 21 6 28 -12 8 -20 -7 -3 3 -6 22 -6 23
-1 31 -4 22 -10 -10 -6 -5 -11 18 -19 17 -7 29 -16 25 -22 -3 -5 1 -10 10 -10
13 0 15 -7 11 -34 -4 -25 -1 -36 9 -40 8 -3 15 -10 15 -16 0 -8 -6 -8 -20 0
-11 6 -20 7 -20 1 0 -5 6 -11 14 -14 8 -3 20 -15 26 -26 9 -17 8 -20 -5 -15
-10 4 -15 0 -15 -14 0 -12 -5 -24 -11 -27 -6 -4 -8 -14 -5 -22 8 -20 -11 -53
-31 -53 -9 0 -14 -3 -11 -6 3 -3 -8 -20 -24 -37 -16 -18 -36 -44 -44 -59 -8
-16 -19 -28 -25 -28 -5 0 -15 -13 -20 -30 -6 -16 -16 -30 -21 -30 -6 0 -8 -11
-6 -25 6 -28 -15 -35 -29 -10 -6 9 -9 2 -9 -23 -1 -21 -9 -52 -18 -70 -16 -30
-16 -33 0 -39 24 -9 42 6 72 61 15 27 35 58 45 68 9 10 17 23 17 29 0 8 5 7
15 -1 19 -15 32 -6 18 12 -6 8 -7 22 -2 33 4 11 8 14 8 6 1 -8 7 -11 16 -7 13
5 14 2 4 -15 -9 -17 -8 -23 2 -30 8 -5 11 -9 7 -10 -5 -1 -11 -2 -15 -3 -5 -1
-14 -5 -20 -9 -7 -5 -17 -6 -22 -2 -6 3 -14 -3 -20 -13 -7 -14 -6 -19 4 -19 8
0 12 4 9 9 -3 4 0 8 5 8 23 0 10 -22 -19 -31 -16 -6 -28 -15 -25 -19 3 -5 2
-16 -1 -25 -5 -13 -8 -14 -15 -3 -7 10 -9 9 -9 -3 0 -26 45 -40 53 -16 2 6 2
0 0 -15 -2 -14 1 -29 8 -34 8 -4 9 -3 5 4 -4 7 2 21 12 33 30 31 38 5 11 -39
-28 -47 -30 -73 -33 -607 -1 -237 -7 -445 -12 -464 -9 -32 -13 -34 -54 -37
-73 -5 -422 -4 -431 2 -5 3 -280 7 -611 10 -563 5 -601 4 -580 -11 13 -9 30
-14 38 -11 8 3 13 2 10 -3 -6 -8 14 -20 78 -46 34 -13 193 -15 1372 -15 l1334
0 0 1935 0 1935 -32 0 c-18 0 -100 5 -183 10 -82 6 -229 14 -325 20 -96 5
-281 16 -410 24 -129 9 -442 27 -695 41 -253 13 -491 27 -530 30 -38 4 -90 8
-115 10 -25 2 -92 6 -150 10 -58 3 -125 8 -150 10 -25 2 -105 7 -178 11 -96 4
-137 10 -147 21 -13 13 -15 12 -16 -4 -2 -25 -2 -25 5 -59 7 -30 5 -32 -31
-37 -21 -4 -53 -9 -70 -13 -26 -5 -33 -3 -33 9 0 9 -10 21 -21 28 -18 9 -27 7
-50 -10 -16 -12 -35 -19 -41 -15 -7 5 -4 10 10 15 12 5 22 17 22 27 0 17 -12
21 -77 31 -115 17 -116 29 -3 35 81 5 90 11 90 68 0 20 4 39 8 42 5 3 6 -23 4
-57 -5 -59 -4 -61 14 -43 10 10 30 23 46 28 25 9 28 15 28 53 0 52 -8 59 -55
46 -31 -8 -35 -7 -35 9 0 10 -5 22 -10 25 -15 9 32 44 69 51 43 9 79 -2 86
-27 16 -49 15 -3 -1 93 -9 56 -20 128 -23 158 -5 42 -10 54 -21 51 -8 -2 -26
-5 -40 -8 -24 -3 -25 -3 -2 6 40 18 27 41 -23 41 -25 0 -53 -4 -63 -9 -9 -6
-78 -15 -152 -21 -74 -6 -152 -13 -172 -16 -30 -5 -38 -3 -38 9 0 10 16 16 50
21 28 4 55 4 60 1 6 -3 10 -2 10 4 0 6 -69 10 -185 11 -119 0 -185 -3 -185
-10 0 -5 -5 -10 -11 -10 -5 0 -7 5 -3 11 4 7 0 9 -12 6 -50 -14 -94 -17 -94
-7 0 5 -9 10 -20 10 -11 0 -20 -4 -20 -9 0 -5 -11 -11 -25 -13 -13 -3 -22 -2
-20 2 4 6 -17 20 -30 20 -2 0 -1 -19 1 -42 2 -24 1 -35 -2 -25 -6 18 -24 24
-24 7 0 -6 -13 -8 -30 -5 -17 3 -30 1 -30 -5 0 -16 -27 -11 -34 6 -4 9 -4 19
-1 22 3 3 5 2 5 -2 0 -4 9 -2 20 4 11 6 17 16 14 25 -5 13 -45 15 -265 15
l-259 0 0 -415z m420 379 c0 -8 -5 -12 -10 -9 -6 4 -8 11 -5 16 9 14 15 11 15
-7z m200 -142 c0 -8 -100 -32 -133 -32 -9 0 -17 4 -17 9 0 5 28 14 63 19 85
13 87 13 87 4z m347 -322 c14 -26 17 -40 9 -40 -14 0 -82 -108 -73 -116 8 -9
46 -8 95 1 35 6 42 5 42 -9 0 -9 7 -16 15 -16 18 0 19 5 2 22 -16 15 -30 88
-18 88 5 0 13 -6 19 -12 12 -15 35 -98 29 -104 -8 -8 -153 -44 -179 -44 -15 0
-30 -4 -33 -10 -3 -5 -17 -10 -30 -10 -13 0 -27 5 -30 10 -3 6 -13 10 -21 10
-8 0 -12 -4 -9 -10 3 -5 1 -10 -4 -10 -6 0 -11 5 -11 10 0 16 -32 11 -46 -7
-12 -16 -13 -16 -14 -2 0 12 -11 18 -36 21 -38 4 -38 4 -18 -60 6 -22 5 -23
-15 -11 -28 18 -27 65 3 109 l23 35 104 -3 104 -3 32 55 c17 31 29 57 25 60
-4 2 -42 7 -85 11 -67 6 -76 9 -66 21 23 28 82 51 139 53 19 1 30 -8 47 -39z
m1762 -188 c1 -7 -3 -10 -9 -7 -5 3 -10 18 -9 33 0 24 1 25 9 7 5 -11 9 -26 9
-33z m-196 24 c4 -11 1 -13 -11 -10 -14 5 -13 3 2 -10 11 -9 24 -16 30 -16 5
0 7 -3 4 -6 -4 -3 -17 0 -30 7 -31 16 -29 14 -22 33 8 20 20 21 27 2z m-488
-25 c-3 -6 18 -9 52 -8 l58 2 5 -125 c3 -69 9 -134 13 -145 5 -11 2 -9 -6 5
-14 23 -15 20 -22 -55 -4 -44 -8 -87 -10 -95 -20 -114 -21 -116 -56 -105 -14
5 -18 12 -14 23 13 32 16 102 4 102 -6 0 -9 9 -6 20 3 13 0 20 -9 20 -8 0 -14
4 -14 10 0 5 -8 6 -17 3 -16 -6 -16 -5 0 17 23 32 21 50 -3 50 -20 0 -20 5
-18 129 2 71 6 127 9 125 4 -2 9 5 12 16 3 11 10 20 17 20 6 0 9 -4 5 -9z
m345 -20 c0 -6 -5 -13 -10 -16 -15 -9 -43 3 -35 15 8 13 45 13 45 1z m-849
-83 c55 -23 104 -57 64 -45 -11 4 -38 2 -59 -3 -42 -9 -67 -3 -45 11 11 6 10
9 -4 15 -9 3 -23 2 -30 -4 -6 -5 -41 -13 -76 -17 -50 -6 -64 -11 -68 -26 -4
-15 -8 -17 -19 -8 -25 21 -15 38 34 54 39 13 41 15 12 10 -28 -4 -32 -3 -17 6
11 6 29 9 43 6 13 -2 21 -1 19 4 -3 4 3 10 12 12 41 11 83 6 134 -15z m-424
-34 c-3 -3 -12 -4 -19 -1 -8 3 -5 6 6 6 11 1 17 -2 13 -5z m308 -24 c8 -13 -5
-13 -25 0 -13 8 -13 10 2 10 9 0 20 -4 23 -10z m306 -43 c9 -33 4 -36 -43 -30
-37 5 -37 5 -21 29 13 21 13 24 0 24 -8 0 -20 6 -26 14 -10 12 -5 12 35 2 39
-10 49 -17 55 -39z m-158 36 c-7 -2 -19 -2 -25 0 -7 3 -2 5 12 5 14 0 19 -2
13 -5z m2537 -27 c0 -8 -7 -17 -16 -20 -23 -9 -24 -8 -24 14 0 13 7 20 20 20
11 0 20 -6 20 -14z m-3755 -25 c-3 -9 0 -11 10 -7 8 3 15 1 15 -3 0 -12 -60
-32 -71 -25 -5 3 -9 16 -9 28 0 19 5 23 30 22 21 -1 29 -5 25 -15z m1250 0 c3
-5 2 -12 -3 -15 -8 -5 -268 -66 -282 -66 -11 0 -24 59 -15 68 3 3 10 1 14 -6
6 -11 33 -9 137 6 71 11 132 20 136 21 4 0 9 -3 13 -8z m621 -53 c4 -7 3 -8
-4 -4 -7 4 -12 0 -12 -10 0 -10 -3 -15 -6 -11 -7 6 2 37 10 37 3 0 8 -5 12
-12z m-1068 -17 c4 -11 -2 -12 -24 -7 -45 11 -55 28 -15 24 19 -2 37 -9 39
-17z m212 -30 c0 -5 -10 -11 -22 -14 -22 -6 -22 -6 -4 8 23 17 26 18 26 6z
m220 5 c0 -7 -111 -28 -117 -23 -3 3 15 10 39 15 49 11 78 14 78 8z m607 -28
c-3 -7 -5 -2 -5 12 0 14 2 19 5 13 2 -7 2 -19 0 -25z m-1916 12 c41 -22 11
-78 -36 -66 -29 7 -33 36 -9 60 18 19 20 19 45 6z m867 -19 c6 -1 12 -8 12
-16 0 -16 -37 -12 -100 11 -35 13 -35 13 20 9 30 -2 61 -4 68 -4z m616 -40
c10 -59 7 -109 -4 -91 -8 12 -10 10 -10 -10 -1 -25 -1 -25 -16 -5 l-16 20 3
-20 c4 -36 -11 -56 -32 -44 -10 5 -19 7 -19 4 0 -16 3 -20 14 -17 6 1 2 -4 -8
-13 -14 -11 -23 -12 -32 -4 -10 8 -22 8 -45 0 -17 -6 -35 -9 -39 -6 -9 6 -70
-14 -70 -23 0 -4 -20 -8 -44 -9 -24 -1 -53 -6 -65 -12 -16 -9 -20 -8 -20 6 0
10 -5 40 -11 66 -7 27 -10 50 -8 53 3 2 27 -4 54 -13 29 -10 42 -19 32 -21
-22 -4 -24 -32 -3 -32 7 0 18 7 23 17 9 14 10 14 16 -5 7 -19 10 -18 44 20 72
81 189 173 221 174 26 1 30 -3 35 -35z m-1659 9 c3 -5 1 -10 -4 -10 -6 0 -11
5 -11 10 0 6 2 10 4 10 3 0 8 -4 11 -10z m757 -13 c13 -20 9 -27 -14 -27 -31
0 -68 -11 -68 -19 0 -7 42 -20 152 -46 56 -13 77 -14 133 -4 36 7 64 17 62 22
-2 6 -43 21 -92 34 -92 24 -103 29 -92 39 8 9 128 -15 144 -28 7 -5 16 -7 22
-4 5 3 21 2 35 -4 25 -9 26 -13 26 -83 l0 -74 -56 1 c-56 1 -57 0 -76 -37 -17
-31 -22 -35 -32 -23 -6 7 -33 20 -61 29 -98 29 -140 40 -164 43 -20 2 -73 44
-56 44 3 0 -7 14 -24 32 -24 26 -50 94 -39 102 2 2 35 7 73 12 79 11 116 8
127 -9z m-802 -28 c0 -6 -4 -7 -10 -4 -5 3 -10 11 -10 16 0 6 5 7 10 4 6 -3
10 -11 10 -16z m39 -17 c-1 -15 -2 -15 -6 1 -2 9 -9 14 -15 11 -7 -4 -8 -2 -4
5 10 15 26 4 25 -17z m224 -203 c-11 -11 -115 -39 -143 -39 -45 0 -15 19 58
37 75 19 103 20 85 2z m147 -179 l0 -29 -62 21 c-80 26 -93 38 -42 38 21 0 46
4 53 9 24 15 51 -6 51 -39z m375 -120 c-27 -12 -43 -12 -25 0 8 5 22 9 30 9
10 0 8 -3 -5 -9z m-365 -291 c0 -5 -4 -7 -10 -4 -5 3 -10 2 -10 -3 0 -9 -52
-32 -71 -32 -18 0 -8 18 14 25 12 5 31 11 42 15 29 11 35 11 35 -1z m-125 -49
c3 -5 2 -10 -4 -10 -5 0 -13 5 -16 10 -3 6 -2 10 4 10 5 0 13 -4 16 -10z m50
-20 c3 -5 2 -10 -4 -10 -5 0 -13 5 -16 10 -3 6 -2 10 4 10 5 0 13 -4 16 -10z
m-58 -16 c1 -5 -35 -27 -82 -48 -46 -22 -82 -42 -80 -46 3 -5 -22 -27 -56 -51
-33 -24 -70 -52 -81 -61 -12 -10 -25 -18 -30 -18 -15 0 69 74 105 94 20 10 38
24 41 32 3 7 22 22 43 33 21 10 56 33 77 50 38 30 57 35 63 15z m-107 -113 c0
-5 -10 -13 -22 -16 -13 -4 -34 -17 -47 -29 -16 -14 -22 -16 -19 -6 2 8 22 25
44 37 45 26 44 26 44 14z m-126 -76 c-10 -8 -23 -14 -29 -14 -5 0 -1 6 9 14
11 8 24 15 30 15 5 0 1 -7 -10 -15z m-40 -41 c3 -8 2 -13 -3 -9 -5 3 -11 -1
-14 -7 -2 -7 -8 -10 -12 -6 -9 9 1 38 14 38 5 0 12 -7 15 -16z m3630 -766 c-4
-13 -7 -33 -6 -45 1 -16 -4 -21 -18 -20 -23 2 -27 17 -4 17 8 0 13 4 9 9 -5 9
14 61 22 61 3 0 1 -10 -3 -22z m76 18 c0 -3 -4 -8 -10 -11 -5 -3 -10 -1 -10 4
0 6 5 11 10 11 6 0 10 -2 10 -4z m-50 -111 c-13 -34 -6 -43 16 -24 16 13 16
12 3 -9 -15 -24 -32 -24 -37 0 -3 17 16 73 24 66 2 -3 0 -18 -6 -33z m-57 -5
c3 -11 1 -18 -4 -14 -5 3 -9 0 -9 -5 0 -6 -3 -10 -7 -10 -19 3 -27 -2 -15 -10
11 -7 9 -17 -12 -49 -14 -23 -26 -46 -26 -52 0 -5 -5 -10 -11 -10 -14 0 -2 52
13 61 6 4 7 12 4 18 -4 6 -3 11 2 11 5 0 13 8 16 18 12 31 31 62 37 62 4 0 9
-9 12 -20z m87 10 c0 -5 -4 -10 -10 -10 -5 0 -10 5 -10 10 0 6 5 10 10 10 6 0
10 -4 10 -10z m-205 -31 c-4 -5 -1 -9 6 -9 7 0 5 -8 -6 -20 -17 -19 -20 -19
-34 -5 -14 14 -14 17 -1 25 8 5 11 10 5 10 -5 0 -3 4 5 9 16 11 33 4 25 -10z
m268 -19 c-3 -12 -8 -19 -11 -16 -5 6 5 36 12 36 2 0 2 -9 -1 -20z m-116 -44
c-3 -7 0 -19 6 -25 8 -8 8 -11 0 -11 -6 0 -14 -11 -17 -25 -4 -14 -17 -30 -31
-35 -15 -6 -23 -15 -19 -24 3 -8 1 -17 -5 -21 -13 -7 -15 26 -3 41 4 5 14 27
21 49 8 22 18 46 23 53 14 16 31 15 25 -2z m-70 -28 c-3 -8 -6 -5 -6 6 -1 11
2 17 5 13 3 -3 4 -12 1 -19z m20 0 c-3 -8 -6 -5 -6 6 -1 11 2 17 5 13 3 -3 4
-12 1 -19z m120 -35 c-3 -3 -11 -2 -17 2 -8 5 -7 11 2 22 12 15 13 14 16 -1 2
-10 1 -20 -1 -23z m-25 -35 c-9 -9 -12 -7 -12 12 0 19 3 21 12 12 9 -9 9 -15
0 -24z m-152 -20 c0 -18 -2 -19 -17 -7 -15 13 -16 12 -10 -9 8 -33 -1 -52 -21
-44 -14 5 -15 3 -4 -10 8 -11 10 -26 5 -45 -4 -15 -6 -35 -4 -43 2 -10 -2 -9
-12 4 -10 14 -16 16 -22 6 -6 -10 -9 -10 -15 1 -5 7 -2 23 7 36 13 19 14 29 4
50 -9 19 -9 29 -1 37 8 8 9 6 5 -9 -7 -20 -6 -20 45 42 5 7 10 17 10 24 0 8 4
8 15 -1 8 -7 15 -21 15 -32z m-223 -20 c-3 -8 -6 -5 -6 6 -1 11 2 17 5 13 3
-3 4 -12 1 -19z m358 12 c3 -5 1 -10 -4 -10 -6 0 -11 5 -11 10 0 6 2 10 4 10
3 0 8 -4 11 -10z m-130 -40 c-3 -5 -1 -10 4 -10 6 0 11 5 11 11 0 5 5 7 10 4
18 -11 12 -38 -7 -31 -19 8 -32 -9 -33 -44 l-1 -25 -10 24 c-7 18 -5 28 7 42
10 11 14 19 10 19 -4 0 -4 5 -1 10 3 6 8 10 11 10 3 0 2 -4 -1 -10z m145 -55
c-7 -9 -15 -13 -19 -10 -3 3 1 10 9 15 21 14 24 12 10 -5z m-143 -47 c-3 -8
-6 -5 -6 6 -1 11 2 17 5 13 3 -3 4 -12 1 -19z m90 -10 c-3 -7 -5 -2 -5 12 0
14 2 19 5 13 2 -7 2 -19 0 -25z m-103 -4 c3 -8 2 -12 -4 -9 -6 3 -10 1 -10 -6
0 -7 -2 -10 -5 -7 -5 5 4 38 10 38 2 0 6 -7 9 -16z m-107 -49 c0 -8 -4 -12 -9
-9 -5 3 -6 10 -3 15 9 13 12 11 12 -6z m20 -107 c-3 -8 -6 -5 -6 6 -1 11 2 17
5 13 3 -3 4 -12 1 -19z m-47 -939 c0 -11 -4 -17 -10 -14 -5 3 -10 13 -10 21 0
8 5 14 10 14 6 0 10 -9 10 -21z"/>
<path d="M3530 1449 c0 -5 5 -7 10 -4 6 3 10 8 10 11 0 2 -4 4 -10 4 -5 0 -10
-5 -10 -11z"/>
<path d="M3680 1401 c0 -5 5 -13 10 -16 6 -3 10 -2 10 4 0 5 -4 13 -10 16 -5
3 -10 2 -10 -4z"/>
<path d="M820 2624 c-71 -28 -100 -50 -118 -88 -45 -93 -54 -138 -53 -256 1
-112 11 -131 60 -110 17 7 31 19 31 27 0 8 5 11 10 8 6 -3 10 -1 10 4 0 6 9
11 20 11 11 0 20 7 20 16 0 8 4 13 9 9 6 -3 13 1 18 9 4 8 26 17 48 20 22 4
42 11 43 16 2 6 10 10 17 10 7 0 16 7 19 16 3 9 12 14 19 11 6 -2 23 4 36 14
13 10 27 16 32 13 5 -3 9 -1 9 5 0 6 20 22 45 37 25 14 45 30 45 35 0 4 6 6
14 3 15 -6 32 58 20 78 -5 8 -2 9 11 4 16 -6 17 -5 3 16 -8 13 -28 29 -44 37
-16 8 -30 18 -32 23 -2 4 -12 8 -22 8 -10 0 -21 4 -25 9 -3 6 -13 10 -23 10
-9 1 -60 3 -112 6 -52 2 -102 2 -110 -1z"/>
<path d="M2316 2302 c-14 -24 -17 -75 -5 -83 11 -7 10 -9 -3 -9 -10 0 -18 -5
-18 -11 0 -6 -12 -9 -27 -7 -23 2 -29 -1 -32 -22 -1 -14 -8 -28 -13 -31 -15
-9 -1 -28 28 -39 13 -5 24 -18 24 -28 0 -10 4 -22 10 -28 5 -5 13 -27 18 -49
5 -23 14 -39 21 -37 8 1 10 -4 7 -15 -3 -10 3 -28 13 -40 23 -27 85 -63 110
-63 11 0 21 -5 23 -12 3 -7 14 -9 32 -4 20 5 33 19 48 53 19 44 20 48 4 77
-17 33 -16 61 5 94 11 17 9 27 -14 69 -15 26 -35 66 -46 88 -29 62 -68 91
-128 98 -29 3 -54 3 -57 -1z"/>
<path d="M626 2005 c-3 -9 0 -15 9 -15 16 0 20 16 6 24 -5 3 -11 -1 -15 -9z"/>
<path d="M0 1969 c0 -17 4 -28 10 -24 6 3 10 17 10 31 0 13 -4 24 -10 24 -5 0
-10 -14 -10 -31z"/>
<path d="M613 1955 c0 -8 7 -15 15 -15 7 0 12 5 10 12 -6 18 -25 21 -25 3z"/>
<path d="M595 1880 c3 -5 11 -10 16 -10 6 0 7 5 4 10 -3 6 -11 10 -16 10 -6 0
-7 -4 -4 -10z"/>
<path d="M600 1835 c-13 -35 -13 -48 2 -43 15 5 29 56 17 64 -5 3 -14 -7 -19
-21z"/>
<path d="M3540 1780 c0 -5 5 -10 11 -10 5 0 7 5 4 10 -3 6 -8 10 -11 10 -2 0
-4 -4 -4 -10z"/>
<path d="M580 1740 c0 -16 -4 -30 -10 -30 -6 0 -6 -10 1 -27 13 -34 9 -123 -6
-160 -7 -16 -28 -37 -49 -48 -20 -11 -36 -23 -36 -27 0 -16 52 -20 95 -8 47
13 61 37 35 57 -10 8 -11 12 -2 13 17 0 15 18 -4 38 -10 10 -13 17 -6 20 7 2
8 11 2 27 -6 17 -5 25 5 28 12 5 14 60 3 130 -4 30 -28 19 -28 -13z"/>
<path d="M1292 1502 c-12 -2 -35 -19 -50 -38 -15 -19 -31 -34 -35 -34 -5 0
-27 -16 -50 -35 -22 -19 -45 -35 -49 -35 -5 0 -30 -10 -56 -21 -26 -12 -58
-22 -72 -23 -14 -1 -31 -5 -37 -9 -8 -5 -13 -4 -13 2 0 6 -9 11 -20 11 -11 0
-20 -4 -20 -9 0 -12 31 -25 54 -22 11 2 16 -2 12 -8 -4 -7 -1 -8 8 -5 9 3 35
7 58 8 52 3 98 15 98 27 0 5 7 5 17 2 11 -4 14 -3 9 6 -5 8 -2 11 9 9 22 -4
126 87 152 134 23 41 21 46 -15 40z"/>
<path d="M790 1350 c0 -13 33 -21 42 -12 6 6 -1 11 -16 14 -14 3 -26 2 -26 -2z"/>
<path d="M855 1320 c3 -5 11 -10 16 -10 6 0 7 5 4 10 -3 6 -11 10 -16 10 -6 0
-7 -4 -4 -10z"/>
<path d="M1850 1165 c-10 -12 -10 -15 4 -15 9 0 16 7 16 15 0 8 -2 15 -4 15
-2 0 -9 -7 -16 -15z"/>
<path d="M1730 1120 c0 -12 37 -12 65 0 15 7 10 9 -22 9 -24 1 -43 -3 -43 -9z"/>
<path d="M1809 1003 c-5 -23 -4 -103 1 -103 9 0 70 70 70 80 0 6 -13 -4 -29
-22 l-30 -33 6 43 c4 28 2 42 -6 42 -6 0 -12 -3 -12 -7z"/>
<path d="M1757 940 c-15 -16 -23 -30 -19 -30 11 0 55 50 49 56 -2 2 -16 -9
-30 -26z"/>
<path d="M1899 960 c0 -3 -2 -13 -4 -22 -2 -10 1 -18 5 -18 15 0 19 15 9 30
-5 8 -9 13 -10 10z"/>
<path d="M2618 393 c7 -3 16 -2 19 1 4 3 -2 6 -13 5 -11 0 -14 -3 -6 -6z"/>
</g>
</svg>
